<svg xmlns="http://www.w3.org/2000/svg" width="19" height="39" viewBox="0 0 19 39"><defs><filter id="a" width="108.1%" height="102.9%" x="-4%" y="-1.5%" filterUnits="objectBoundingBox"><feGaussianBlur in="SourceGraphic"/></filter></defs><g fill-rule="evenodd" transform="translate(1 1)"><path fill-rule="nonzero" stroke="#000" stroke-linejoin="round" d="M6.77647664,2.6 C3.97621623,4.86080729 2.00954956,7.96080729 0.876476644,11.9 C-0.491492106,16.7268229 -0.258158773,21.3268229 1.57647664,25.7 C3.51475789,30.2860677 6.46475789,33.0860677 10.4264766,34.1 L10.9264766,29.15 C7.97790894,28.3608073 5.72790894,26.2941406 4.17647664,22.95 C2.54965373,19.5929688 2.23298706,15.9596354 3.22647664,12.05 C4.0227006,8.76536458 5.58936727,6.14869792 7.92647664,4.2 C9.3258256,3.04322917 10.8091589,2.29322917 12.3764766,1.95 C12.3764766,1.30833333 12.3764766,0.658333333 12.3764766,1.44328993e-15 C10.4255652,0.339713542 8.55889852,1.20638021 6.77647664,2.6 Z" filter="url(#a)"/><rect width="12" height="12" rx="5" transform="translate(6 26)"/></g></svg>